ply
format ascii 1.0
comment Created by CloudCompare v2.11.1 (Anoia)
comment Created 9/2/20 10:03 AM
obj_info Generated by CloudCompare!
element vertex 5
property float x
property float y
property float z
property uchar red
property uchar green
property uchar blue
property float scalar_Original_cloud_index
end_header
4.69882 -3.1122 3.1 239 41 41 1 
4.69882 -3.1122 0.0378168 239 41 41 1 
4.69882 -3.1122 3.06218 239 41 41 1 
-0.0232066 -3.1122 0.0378168 239 41 41 1 
-0.0232066 -3.1122 3.06218 239 41 41 1 
