ply
format ascii 1.0
comment Created by CloudCompare v2.11.1 (Anoia)
comment Created 9/2/20 10:06 AM
obj_info Generated by CloudCompare!
element vertex 8
property float x
property float y
property float z
property uchar red
property uchar green
property uchar blue
property float scalar_Original_cloud_index
end_header
-0.0610235 -2.37992 3.1 239 41 41 1 
-0.0610235 -0.793306 3.1 239 41 41 1 
-0.0610235 -2.37992 -1e-07 239 41 41 1 
-0.0610235 -0.793305 -3e-08 239 41 41 1 
-0.0232066 -2.37992 0.0378168 239 41 41 1 
-0.0232066 -2.37992 3.06218 239 41 41 1 
-0.0232066 -3.1122 0.0378168 239 41 41 1 
-0.0232066 -3.1122 3.06218 239 41 41 1 
